<?xml version="1.0" encoding="utf-8"?>
<!-- Generator: Adobe Illustrator 27.1.1, SVG Export Plug-In . SVG Version: 6.00 Build 0)  -->
<svg version="1.1" id="Layer_1" xmlns="http://www.w3.org/2000/svg" xmlns:xlink="http://www.w3.org/1999/xlink" x="0px" y="0px"
	 viewBox="0 0 265.5 268.5" style="enable-background:new 0 0 265.5 268.5;" xml:space="preserve">
<g>
	<path d="M223.6,43.4C199.4,19.3,167.2,6,133,6S66.6,19.3,42.4,43.4c-49.9,49.9-49.9,131,0,181c24.2,24.2,56.3,37.4,90.6,37.4
		c34.2,0,66.4-13.3,90.6-37.4S261,168.2,261,134S247.7,67.6,223.6,43.4z M205.5,206.5c-19.4,19.2-45.1,29.9-72.5,29.9
		s-53.1-10.7-72.5-29.9c-40-40-40-105,0-144.8c19.4-19.4,45.1-29.9,72.5-29.9s53.1,10.7,72.5,29.9c19.4,19.4,29.9,45.1,29.9,72.5
		S224.7,187.1,205.5,206.5z"/>
	<path d="M184.2,121.2h-38.4V82.8c0-7-5.8-12.8-12.8-12.8c-7,0-12.8,5.8-12.8,12.8v38.4H81.8c-7,0-12.8,5.8-12.8,12.8
		c0,7,5.8,12.8,12.8,12.8h38.4v38.4c0,7,5.8,12.8,12.8,12.8c7,0,12.8-5.8,12.8-12.8v-38.4h38.4c7,0,12.8-5.8,12.8-12.8
		C197,127,191.2,121.2,184.2,121.2z"/>
</g>
</svg>
