<?xml version="1.0" standalone="no"?>
<!DOCTYPE svg PUBLIC "-//W3C//DTD SVG 20010904//EN"
 "http://www.w3.org/TR/2001/REC-SVG-20010904/DTD/svg10.dtd">
<svg version="1.0" xmlns="http://www.w3.org/2000/svg"
 width="431.000000pt" height="518.000000pt" viewBox="0 0 431.000000 518.000000"
 preserveAspectRatio="xMidYMid meet">

<g transform="translate(0.000000,518.000000) scale(0.100000,-0.100000)"
fill="currentColor" stroke="none">
<path d="M1133 5160 c-287 -43 -918 -399 -1074 -605 -60 -80 -63 -126 -15
-231 44 -95 115 -210 149 -242 24 -23 26 -23 54 -7 l28 17 -25 -22 -25 -22 39
-31 c22 -17 51 -33 65 -35 31 -4 54 -22 28 -22 -24 0 -21 -13 7 -39 20 -19 28
-21 44 -12 27 14 29 14 36 -5 3 -8 2 -13 -3 -10 -5 3 -13 0 -19 -7 -8 -9 11
-34 71 -97 44 -47 81 -87 81 -90 1 -3 10 -17 22 -32 15 -20 24 -24 37 -16 13
7 20 3 29 -17 14 -31 22 -29 138 32 92 49 133 79 60 43 -25 -11 -61 -28 -80
-37 -19 -8 -48 -22 -65 -30 l-30 -15 33 33 c18 17 31 38 30 46 -2 10 38 36
119 78 67 34 136 71 155 82 40 25 107 62 208 115 79 43 269 159 309 190 22 16
53 26 38 12 -3 -4 0 -13 8 -21 22 -21 18 -36 -14 -58 -17 -11 -28 -21 -26 -23
4 -5 82 45 90 57 3 6 -9 38 -26 73 -75 148 -109 270 -116 418 -3 58 -9 107
-15 109 -5 1 -2 8 7 15 15 11 15 16 0 61 -39 118 -146 300 -192 326 -37 22
-96 29 -160 19z m-583 -274 c0 -2 -21 -17 -47 -32 -27 -15 -52 -32 -56 -38 -6
-7 -7 -6 -5 4 5 16 108 79 108 66z m200 -110 c0 -2 -7 -7 -16 -10 -8 -3 -12
-2 -9 4 6 10 25 14 25 6z m-403 -41 c0 -8 -4 -12 -9 -9 -5 3 -6 10 -3 15 9 13
12 11 12 -6z m-107 -70 c-6 -8 -20 -13 -32 -12 -19 1 -19 2 2 19 25 20 48 14
30 -7z m-87 -60 c-10 -13 -22 -25 -27 -25 -5 0 1 11 14 25 30 32 36 32 13 0z
m1379 -320 c0 -5 -5 -11 -11 -13 -6 -2 -11 4 -11 13 0 9 5 15 11 13 6 -2 11
-8 11 -13z m-881 -25 c-50 -43 -142 -98 -176 -105 l-30 -6 30 25 c34 29 185
116 200 116 6 -1 -5 -14 -24 -30z m899 -10 c0 -5 -2 -10 -4 -10 -3 0 -8 5 -11
10 -3 6 -1 10 4 10 6 0 11 -4 11 -10z m-920 -500 c0 -5 -2 -10 -4 -10 -3 0 -8
5 -11 10 -3 6 -1 10 4 10 6 0 11 -4 11 -10z m90 -35 c0 -5 -56 -35 -66 -35
-15 0 19 29 39 33 12 2 23 5 25 6 1 0 2 -1 2 -4z"/>
<path d="M1683 4018 c30 -57 69 -132 89 -168 47 -88 60 -112 68 -130 7 -14 55
-18 67 -6 8 7 -54 111 -87 146 -16 17 -29 34 -29 38 -1 4 -6 14 -13 23 -13 16
-21 27 -86 136 -62 104 -69 74 -9 -39z"/>
<path d="M2134 3856 c-25 -26 -61 -52 -86 -63 -38 -17 -35 -29 6 -27 33 2 147
-31 156 -45 3 -5 28 -16 56 -25 91 -30 104 -68 47 -143 -15 -19 -22 -37 -17
-42 22 -19 111 -43 158 -43 81 1 185 10 196 17 5 3 10 0 10 -7 0 -9 3 -9 10 2
5 8 10 10 10 3 0 -15 84 -43 114 -37 15 2 26 -1 30 -12 3 -8 10 -12 16 -9 5 3
10 1 10 -4 0 -6 18 -14 41 -17 28 -5 36 -10 27 -15 -11 -7 -10 -11 2 -19 8 -5
20 -8 27 -5 7 2 10 -2 6 -11 -3 -7 0 -14 6 -14 6 0 11 6 11 13 0 8 3 7 9 -3 6
-8 7 -18 5 -22 -3 -4 2 -8 11 -8 9 0 13 -4 10 -10 -3 -5 -1 -10 4 -10 6 0 11
-8 11 -17 0 -13 3 -14 8 -5 6 8 19 -10 42 -53 19 -36 37 -65 42 -65 4 0 8 -7
8 -15 0 -8 4 -15 10 -15 5 0 9 -3 8 -7 -1 -5 4 -21 10 -36 7 -16 12 -35 12
-43 0 -8 9 -23 20 -34 12 -12 18 -26 14 -32 -4 -6 -3 -8 4 -4 10 6 28 -30 24
-46 -1 -5 3 -8 9 -8 5 0 7 -4 4 -10 -3 -5 -2 -10 4 -10 6 0 20 -18 32 -41 11
-23 16 -38 10 -35 -7 4 -8 1 -5 -8 3 -9 10 -14 15 -11 10 7 42 -52 35 -64 -3
-5 3 -16 14 -26 11 -10 17 -21 14 -26 -2 -5 4 -17 16 -29 11 -11 18 -20 15
-20 -3 0 1 -13 9 -29 9 -16 13 -31 10 -34 -6 -6 23 -67 32 -67 2 0 0 9 -6 20
-6 11 -8 20 -6 20 3 0 15 -18 27 -41 13 -26 15 -38 7 -34 -7 5 -2 -2 11 -15
26 -26 74 -126 68 -144 -4 -11 19 -66 29 -66 2 0 0 9 -6 21 -7 11 -10 23 -8
25 3 2 12 -12 21 -32 10 -19 12 -32 6 -28 -8 5 -8 1 0 -14 6 -11 18 -22 27
-26 9 -4 14 -12 10 -22 -3 -8 -2 -13 3 -10 13 8 37 -52 40 -97 0 -13 8 -32 17
-43 8 -10 13 -13 9 -6 -3 6 -4 12 -1 12 3 0 13 -14 22 -31 9 -18 11 -28 4 -24
-9 6 -9 2 -1 -14 12 -22 27 -30 16 -8 -4 6 1 3 9 -8 9 -11 14 -25 11 -33 -2
-7 -1 -11 4 -8 11 7 55 -79 47 -92 -8 -14 15 -63 26 -56 5 3 9 0 7 -7 -3 -25
1 -40 9 -35 12 7 44 -52 36 -66 -5 -7 -3 -8 6 -3 10 6 12 4 7 -9 -4 -9 -3 -15
2 -12 5 3 11 -1 15 -9 3 -8 1 -15 -4 -15 -6 0 1 -22 15 -50 14 -27 28 -50 31
-50 3 0 2 5 -2 12 -4 7 -3 8 5 4 6 -4 9 -12 5 -17 -3 -6 3 -20 14 -32 41 -46
64 -108 59 -160 -5 -52 -71 -193 -113 -243 -13 -15 -24 -31 -24 -36 0 -5 -62
-71 -137 -146 -118 -118 -189 -177 -408 -339 -17 -12 -59 -39 -94 -59 -35 -20
-80 -47 -99 -61 -44 -29 -382 -197 -437 -216 -22 -8 -85 -31 -140 -51 -138
-50 -299 -92 -435 -112 -222 -32 -425 4 -438 78 -1 10 -10 34 -19 55 -9 21
-16 47 -15 58 l2 20 -9 -20 c-14 -29 -13 -47 1 -39 8 5 9 2 5 -9 -3 -10 -2
-17 3 -17 6 0 10 -5 10 -11 0 -24 -30 15 -85 109 -31 53 -96 165 -145 247 -95
161 -227 387 -244 420 -6 11 -20 34 -32 50 -19 28 -90 150 -237 408 -32 56
-89 154 -127 217 -141 237 -195 350 -225 465 -18 70 -20 169 -4 214 16 44 6
48 -39 17 -21 -14 -43 -26 -49 -26 -27 0 -30 72 -7 150 9 32 14 69 10 90 -3
20 -3 40 1 44 4 4 8 12 9 19 13 67 78 185 135 245 17 18 29 35 26 38 -2 3 -27
-19 -56 -48 -62 -65 -126 -192 -167 -333 -25 -86 -29 -117 -28 -220 0 -155 29
-294 84 -408 11 -22 20 -44 20 -48 0 -4 57 -107 126 -230 70 -123 138 -244
152 -269 14 -25 65 -116 114 -202 48 -87 88 -160 88 -162 0 -10 253 -441 262
-447 5 -3 9 -10 9 -15 -1 -12 138 -254 160 -279 10 -11 22 -32 28 -46 5 -15
22 -34 38 -42 15 -8 54 -29 86 -47 84 -47 203 -68 352 -64 126 3 138 5 250 24
392 67 905 300 1283 583 127 95 207 165 324 283 92 93 238 275 238 296 0 6 7
7 16 4 14 -5 15 -4 4 9 -11 13 -10 14 4 9 9 -3 16 -1 16 5 0 6 12 17 28 24 38
17 82 64 82 87 0 11 6 20 14 20 7 0 20 8 27 17 13 16 12 17 -3 4 -29 -22 -20
-4 15 31 17 18 34 44 35 58 2 14 8 26 12 28 4 2 5 12 2 24 -3 13 -1 19 5 15 6
-4 9 6 8 23 -1 16 2 35 6 41 6 11 -9 56 -47 133 -34 68 -127 254 -141 281 -8
17 -145 287 -302 600 -158 314 -295 582 -304 596 -9 13 -18 34 -20 44 -1 11
-25 61 -53 110 -28 50 -58 104 -67 121 -33 64 -171 208 -193 200 -7 -3 -11 0
-8 7 5 15 -108 77 -186 101 -30 10 -62 20 -70 23 -68 26 -209 32 -555 24 -98
-2 -125 2 -176 23 -26 10 -37 11 -45 2z m600 -377 c-2 -4 2 -10 8 -13 7 -3 2
-3 -12 0 -36 9 -44 20 -16 20 14 0 23 -3 20 -7z m41 -19 c3 -5 1 -10 -4 -10
-6 0 -11 5 -11 10 0 6 2 10 4 10 3 0 8 -4 11 -10z m70 -8 c-3 -3 -11 0 -18 7
-9 10 -8 11 6 5 10 -3 15 -9 12 -12z m-2374 -979 c-12 -20 -14 -14 -5 12 4 9
9 14 11 11 3 -2 0 -13 -6 -23z m3468 -932 c0 -14 -1 -14 -6 -1 -3 8 -10 24
-15 35 -9 20 -9 20 6 1 9 -11 16 -27 15 -35z"/>
<path d="M755 3710 c3 -5 8 -10 11 -10 2 0 4 5 4 10 0 6 -5 10 -11 10 -5 0 -7
-4 -4 -10z"/>
<path d="M768 2713 c-18 -5 -15 -26 8 -53 7 -8 14 -31 16 -50 l3 -35 16 35 c9
19 18 52 22 73 5 35 4 37 -21 36 -15 -1 -35 -3 -44 -6z"/>
</g>
</svg>
