<?xml version="1.0" encoding="utf-8"?>
<!-- Generator: Adobe Illustrator 27.1.1, SVG Export Plug-In . SVG Version: 6.00 Build 0)  -->
<svg version="1.1" id="Layer_1" xmlns="http://www.w3.org/2000/svg" xmlns:xlink="http://www.w3.org/1999/xlink" x="0px" y="0px"
	 viewBox="0 0 431 518" style="enable-background:new 0 0 431 518;" xml:space="preserve">
<style type="text/css">
	.st0{fill:#FFFFFF;}
</style>
<g transform="translate(0.000000,518.000000) scale(0.100000,-0.100000)">
	<path class="st0" d="M1133,5160c-287-43-918-399-1074-605c-60-80-63-126-15-231c44-95,115-210,149-242c24-23,26-23,54-7l28,17
		l-25-22l-25-22l39-31c22-17,51-33,65-35c31-4,54-22,28-22c-24,0-21-13,7-39c20-19,28-21,44-12c27,14,29,14,36-5c3-8,2-13-3-10
		s-13,0-19-7c-8-9,11-34,71-97c44-47,81-87,81-90c1-3,10-17,22-32c15-20,24-24,37-16c13,7,20,3,29-17c14-31,22-29,138,32
		c92,49,133,79,60,43c-25-11-61-28-80-37c-19-8-48-22-65-30l-30-15l33,33c18,17,31,38,30,46c-2,10,38,36,119,78c67,34,136,71,155,82
		c40,25,107,62,208,115c79,43,269,159,309,190c22,16,53,26,38,12c-3-4,0-13,8-21c22-21,18-36-14-58c-17-11-28-21-26-23
		c4-5,82,45,90,57c3,6-9,38-26,73c-75,148-109,270-116,418c-3,58-9,107-15,109c-5,1-2,8,7,15c15,11,15,16,0,61
		c-39,118-146,300-192,326C1256,5163,1197,5170,1133,5160z M550,4886c0-2-21-17-47-32c-27-15-52-32-56-38c-6-7-7-6-5,4
		C447,4836,550,4899,550,4886z M750,4776c0-2-7-7-16-10c-8-3-12-2-9,4C731,4780,750,4784,750,4776z M347,4735c0-8-4-12-9-9
		s-6,10-3,15C344,4754,347,4752,347,4735z M240,4665c-6-8-20-13-32-12c-19,1-19,2,2,19C235,4692,258,4686,240,4665z M153,4605
		c-10-13-22-25-27-25s1,11,14,25C170,4637,176,4637,153,4605z M1532,4285c0-5-5-11-11-13s-11,4-11,13s5,15,11,13
		S1532,4290,1532,4285z M651,4260c-50-43-142-98-176-105l-30-6l30,25c34,29,185,116,200,116C681,4289,670,4276,651,4260z M1550,4250
		c0-5-2-10-4-10c-3,0-8,5-11,10c-3,6-1,10,4,10C1545,4260,1550,4256,1550,4250z M630,3750c0-5-2-10-4-10c-3,0-8,5-11,10
		c-3,6-1,10,4,10C625,3760,630,3756,630,3750z M720,3715c0-5-56-35-66-35c-15,0,19,29,39,33c12,2,23,5,25,6
		C719,3719,720,3718,720,3715z"/>
	<path class="st0" d="M1683,4018c30-57,69-132,89-168c47-88,60-112,68-130c7-14,55-18,67-6c8,7-54,111-87,146c-16,17-29,34-29,38
		c-1,4-6,14-13,23c-13,16-21,27-86,136C1630,4161,1623,4131,1683,4018z"/>
	<path class="st0" d="M2134,3856c-25-26-61-52-86-63c-38-17-35-29,6-27c33,2,147-31,156-45c3-5,28-16,56-25c91-30,104-68,47-143
		c-15-19-22-37-17-42c22-19,111-43,158-43c81,1,185,10,196,17c5,3,10,0,10-7c0-9,3-9,10,2c5,8,10,10,10,3c0-15,84-43,114-37
		c15,2,26-1,30-12c3-8,10-12,16-9c5,3,10,1,10-4c0-6,18-14,41-17c28-5,36-10,27-15c-11-7-10-11,2-19c8-5,20-8,27-5c7,2,10-2,6-11
		c-3-7,0-14,6-14s11,6,11,13c0,8,3,7,9-3c6-8,7-18,5-22c-3-4,2-8,11-8s13-4,10-10c-3-5-1-10,4-10c6,0,11-8,11-17c0-13,3-14,8-5
		c6,8,19-10,42-53c19-36,37-65,42-65c4,0,8-7,8-15s4-15,10-15c5,0,9-3,8-7c-1-5,4-21,10-36c7-16,12-35,12-43s9-23,20-34
		c12-12,18-26,14-32s-3-8,4-4c10,6,28-30,24-46c-1-5,3-8,9-8c5,0,7-4,4-10c-3-5-2-10,4-10s20-18,32-41c11-23,16-38,10-35
		c-7,4-8,1-5-8s10-14,15-11c10,7,42-52,35-64c-3-5,3-16,14-26s17-21,14-26c-2-5,4-17,16-29c11-11,18-20,15-20s1-13,9-29
		c9-16,13-31,10-34c-6-6,23-67,32-67c2,0,0,9-6,20s-8,20-6,20c3,0,15-18,27-41c13-26,15-38,7-34c-7,5-2-2,11-15c26-26,74-126,68-144
		c-4-11,19-66,29-66c2,0,0,9-6,21c-7,11-10,23-8,25c3,2,12-12,21-32c10-19,12-32,6-28c-8,5-8,1,0-14c6-11,18-22,27-26s14-12,10-22
		c-3-8-2-13,3-10c13,8,37-52,40-97c0-13,8-32,17-43c8-10,13-13,9-6c-3,6-4,12-1,12s13-14,22-31c9-18,11-28,4-24c-9,6-9,2-1-14
		c12-22,27-30,16-8c-4,6,1,3,9-8c9-11,14-25,11-33c-2-7-1-11,4-8c11,7,55-79,47-92c-8-14,15-63,26-56c5,3,9,0,7-7c-3-25,1-40,9-35
		c12,7,44-52,36-66c-5-7-3-8,6-3c10,6,12,4,7-9c-4-9-3-15,2-12s11-1,15-9c3-8,1-15-4-15c-6,0,1-22,15-50c14-27,28-50,31-50s2,5-2,12
		s-3,8,5,4c6-4,9-12,5-17c-3-6,3-20,14-32c41-46,64-108,59-160s-71-193-113-243c-13-15-24-31-24-36s-62-71-137-146
		c-118-118-189-177-408-339c-17-12-59-39-94-59s-80-47-99-61c-44-29-382-197-437-216c-22-8-85-31-140-51c-138-50-299-92-435-112
		c-222-32-425,4-438,78c-1,10-10,34-19,55s-16,47-15,58l2,20l-9-20c-14-29-13-47,1-39c8,5,9,2,5-9c-3-10-2-17,3-17c6,0,10-5,10-11
		c0-24-30,15-85,109c-31,53-96,165-145,247c-95,161-227,387-244,420c-6,11-20,34-32,50c-19,28-90,150-237,408c-32,56-89,154-127,217
		c-141,237-195,350-225,465c-18,70-20,169-4,214c16,44,6,48-39,17c-21-14-43-26-49-26c-27,0-30,72-7,150c9,32,14,69,10,90
		c-3,20-3,40,1,44s8,12,9,19c13,67,78,185,135,245c17,18,29,35,26,38c-2,3-27-19-56-48c-62-65-126-192-167-333c-25-86-29-117-28-220
		c0-155,29-294,84-408c11-22,20-44,20-48s57-107,126-230c70-123,138-244,152-269s65-116,114-202c48-87,88-160,88-162
		c0-10,253-441,262-447c5-3,9-10,9-15c-1-12,138-254,160-279c10-11,22-32,28-46c5-15,22-34,38-42c15-8,54-29,86-47
		c84-47,203-68,352-64c126,3,138,5,250,24c392,67,905,300,1283,583c127,95,207,165,324,283c92,93,238,275,238,296c0,6,7,7,16,4
		c14-5,15-4,4,9s-10,14,4,9c9-3,16-1,16,5s12,17,28,24c38,17,82,64,82,87c0,11,6,20,14,20c7,0,20,8,27,17c13,16,12,17-3,4
		c-29-22-20-4,15,31c17,18,34,44,35,58c2,14,8,26,12,28s5,12,2,24c-3,13-1,19,5,15s9,6,8,23c-1,16,2,35,6,41c6,11-9,56-47,133
		c-34,68-127,254-141,281c-8,17-145,287-302,600c-158,314-295,582-304,596c-9,13-18,34-20,44c-1,11-25,61-53,110
		c-28,50-58,104-67,121c-33,64-171,208-193,200c-7-3-11,0-8,7c5,15-108,77-186,101c-30,10-62,20-70,23c-68,26-209,32-555,24
		c-98-2-125,2-176,23C2153,3864,2142,3865,2134,3856z M2734,3479c-2-4,2-10,8-13c7-3,2-3-12,0c-36,9-44,20-16,20
		C2728,3486,2737,3483,2734,3479z M2775,3460c3-5,1-10-4-10c-6,0-11,5-11,10c0,6,2,10,4,10C2767,3470,2772,3466,2775,3460z
		 M2845,3452c-3-3-11,0-18,7c-9,10-8,11,6,5C2843,3461,2848,3455,2845,3452z M471,2473c-12-20-14-14-5,12c4,9,9,14,11,11
		C480,2494,477,2483,471,2473z M3939,1541c0-14-1-14-6-1c-3,8-10,24-15,35c-9,20-9,20,6,1C3933,1565,3940,1549,3939,1541z"/>
	<path class="st0" d="M755,3710c3-5,8-10,11-10c2,0,4,5,4,10c0,6-5,10-11,10C754,3720,752,3716,755,3710z"/>
	<path class="st0" d="M768,2713c-18-5-15-26,8-53c7-8,14-31,16-50l3-35l16,35c9,19,18,52,22,73c5,35,4,37-21,36
		C797,2718,777,2716,768,2713z"/>
</g>
</svg>
