<?xml version="1.0" encoding="utf-8"?>
<!-- Generator: Adobe Illustrator 27.1.1, SVG Export Plug-In . SVG Version: 6.00 Build 0)  -->
<svg version="1.1" id="Layer_1" xmlns="http://www.w3.org/2000/svg" xmlns:xlink="http://www.w3.org/1999/xlink" x="0px" y="0px"
	 viewBox="0 0 100 100" style="enable-background:new 0 0 100 100;" xml:space="preserve">
<path d="M37.4,20.1h25.3c1.3,0,2.3-1.4,2.3-3v-6c0-4.9-3.1-9-6.9-9H42c-3.8,0-6.9,4-6.9,9v6C35.1,18.8,36.1,20.1,37.4,20.1z"/>
<path d="M75.3,9.7H73c-0.7,0-1.1,0.6-1.1,1.5v6c0,6.5-4.1,11.9-9.2,11.9H37.4c-5.1,0-9.2-5.4-9.2-11.9v-6c0-0.9-0.5-1.5-1.1-1.5
	h-2.3c-3.8,0-6.9,4-6.9,9v64.2c0,4.9,3.1,9,6.9,9h50.5c3.8,0,6.9-4,6.9-9V18.6C82.1,13.7,79,9.7,75.3,9.7z M37.4,73.9
	c0,1.6-1,3-2.3,3h-2.3c-1.3,0-2.3-1.4-2.3-3v-3c0-1.6,1-3,2.3-3h2.3c1.3,0,2.3,1.4,2.3,3V73.9z M37.4,58.9c0,1.6-1,3-2.3,3h-2.3
	c-1.3,0-2.3-1.4-2.3-3v-3c0-1.6,1-3,2.3-3h2.3c1.3,0,2.3,1.4,2.3,3V58.9z M37.4,44c0,1.6-1,3-2.3,3h-2.3c-1.3,0-2.3-1.4-2.3-3v-3
	c0-1.6,1-3,2.3-3h2.3c1.3,0,2.3,1.4,2.3,3V44z M69.5,73.9c0,1.6-1,3-2.3,3h-23c-1.3,0-2.3-1.4-2.3-3v-3c0-1.6,1-3,2.3-3h23
	c1.3,0,2.3,1.4,2.3,3V73.9z M69.5,58.9c0,1.6-1,3-2.3,3h-23c-1.3,0-2.3-1.4-2.3-3v-3c0-1.6,1-3,2.3-3h23c1.3,0,2.3,1.4,2.3,3V58.9z
	 M69.5,44c0,1.6-1,3-2.3,3h-23C43,47,42,45.6,42,44v-3c0-1.6,1-3,2.3-3h23c1.3,0,2.3,1.4,2.3,3V44z"/>
</svg>
