<svg version="1.2" xmlns="http://www.w3.org/2000/svg" viewBox="0 0 800 800" preserveAspectRatio="xMidYMid meet" width="800" height="800"><style></style><path transform="translate(0,6.5)" fill-rule="evenodd" d="m784.5 495.9c7.7 5.8 9.7 16.2 4.9 24.7l-80.6 133.4c-4.9 8.5-15.3 11.9-24.6 8.5l-100.3-38.6c-21 15-43.6 28.1-68.2 37.8l-15.3 102.2c-1.2 9.2-9.6 16.2-19.7 16.2h-161.2c-10.1 0-18.5-7-19.8-16.2l-15.3-102.2c-24.6-9.7-47.1-22.4-68.1-37.8l-100.3 38.6c-8.9 3-19.8 0-24.6-8.5l-80.6-133.4c-4.8-8.5-2.8-18.9 4.8-24.7l85.1-63.6c-1.7-12.4-2.9-25.1-2.9-37.8 0-12.7 1.2-25.5 2.9-37.8l-85.1-63.6c-7.6-5.8-10-16.2-4.8-24.7l80.6-133.4c4.8-8.5 15.3-12 24.6-8.5l100.3 38.6c21-15.1 43.5-28.2 68.1-37.8l15.3-102.2c1.3-9.3 9.7-16.2 19.8-16.2h161.2c10.1 0 18.5 6.9 19.7 16.2l15.3 102.2c24.6 9.6 47.2 22.3 68.2 37.8l100.3-38.6c8.9-3.1 19.7 0 24.6 8.5l80.6 133.4c4.8 8.5 2.8 18.9-4.9 24.7l-85 63.6c1.6 12.3 2.8 24.7 2.8 37.8 0 13.1-1.2 25.4-2.8 37.8zm-243.4-101.4c0-74.7-63-135-141-135-78 0-141.1 60.3-141.1 135 0 74.6 63.1 134.9 141.1 134.9 78 0 141-60.3 141-134.9z"/></svg>