<?xml version="1.0" encoding="UTF-8"?>
<svg version="1.1" xmlns="http://www.w3.org/2000/svg" width="512" height="512">
<path d="M0 0 C6.29933154 3.18536507 12.15661872 6.79711174 17.99385071 10.7598877 C18.9222728 11.38463989 19.85069489 12.00939209 20.80725098 12.65307617 C22.75285883 13.96455763 24.69646661 15.27901076 26.63813782 16.59631348 C29.60311421 18.60621008 32.57628264 20.60352941 35.55049133 22.59973145 C37.44877894 23.88154167 39.34658253 25.16406904 41.24385071 26.4473877 C42.12724625 27.0402356 43.01064178 27.6330835 43.92080688 28.24389648 C55.64952198 36.23194133 55.64952198 36.23194133 57.78681946 42.1036377 C58.12275696 44.1817627 58.12275696 44.1817627 58.16181946 46.3536377 C58.19017883 47.06004395 58.21853821 47.7664502 58.24775696 48.4942627 C57.14620486 54.73016778 54.55498665 58.88729376 49.52827454 62.57873535 C47.8001544 63.74384741 46.05864386 64.88927031 44.30635071 66.0177002 C43.37892563 66.63583588 42.45150055 67.25397156 41.49597168 67.89083862 C38.5415755 69.85427317 35.5711094 71.7916567 32.59931946 73.7286377 C30.62098328 75.0368374 28.64375748 76.34671792 26.66767883 77.6583252 C22.19601726 80.62187171 17.7134043 83.56797312 13.22129822 86.50042725 C10.02114833 88.60786553 6.85382203 90.76291093 3.69189453 92.92721558 C-1.1881587 95.94074645 -6.67276153 95.66720467 -12.21318054 95.1036377 C-16.83018338 92.92105454 -20.2320341 89.86524721 -22.21318054 85.1036377 C-22.69128061 81.29707136 -22.59162489 77.55726732 -22.46318054 73.7286377 C-22.44513367 72.70641113 -22.42708679 71.68418457 -22.40849304 70.63098145 C-22.36157545 68.12089021 -22.29594784 65.61276005 -22.21318054 63.1036377 C-29.11445185 63.19669141 -36.01539789 63.30408846 -42.91630554 63.42102051 C-45.25935424 63.45908215 -47.60245685 63.49397288 -49.94560242 63.5255127 C-53.33186491 63.57166278 -56.71776348 63.62957041 -60.10380554 63.6895752 C-61.13555908 63.7011264 -62.16731262 63.71267761 -63.23033142 63.72457886 C-73.76872093 63.93394592 -83.86242247 64.96754613 -93.21318054 70.1036377 C-93.94021179 70.50195801 -94.66724304 70.90027832 -95.41630554 71.31066895 C-105.2570244 77.28047566 -112.08346803 86.78687494 -119.03031921 95.76086426 C-122.22286747 99.8796283 -125.51594201 103.89157507 -128.90068054 107.8536377 C-132.67895713 112.27905513 -136.37445784 116.75550989 -139.99052429 121.3145752 C-142.85464882 124.90857328 -145.75147968 128.47541097 -148.65068054 132.0411377 C-149.21641785 132.73698975 -149.78215515 133.4328418 -150.36503601 134.14978027 C-154.18036362 138.8397527 -158.00663827 143.52065227 -161.83818054 148.1973877 C-164.80406248 151.8266906 -167.75883361 155.46494333 -170.71318054 159.1036377 C-176.55942775 166.30361966 -182.42792734 173.48506382 -188.30693054 180.6583252 C-193.35853629 186.82640903 -198.3899568 193.01061958 -203.41532898 199.20007324 C-207.21194036 203.87491419 -211.02155924 208.53886463 -214.83818054 213.1973877 C-217.80406248 216.8266906 -220.75883361 220.46494333 -223.71318054 224.1036377 C-229.55942775 231.30361966 -235.42792734 238.48506382 -241.30693054 245.6583252 C-245.78818362 251.13000015 -250.25498928 256.61317204 -254.71318054 262.1036377 C-259.16715344 267.58890824 -263.62437075 273.07129451 -268.11161804 278.52941895 C-269.54654589 280.2870722 -270.96789061 282.05588019 -272.37724304 283.83410645 C-287.11476246 302.29506275 -303.76749876 314.47475254 -327.21318054 319.1036377 C-331.40445168 319.50059342 -335.55974251 319.54868525 -339.76786804 319.53723145 C-340.91304901 319.5424733 -342.05822998 319.54771515 -343.2381134 319.55311584 C-345.63636977 319.5594901 -348.0346576 319.55825935 -350.4329071 319.54968262 C-354.099808 319.54111051 -357.76518049 319.57009998 -361.43193054 319.60168457 C-363.77307591 319.60329534 -366.11422403 319.60272143 -368.45536804 319.59973145 C-370.09141495 319.61658241 -370.09141495 319.61658241 -371.76051331 319.6337738 C-377.90815265 319.57733982 -381.54024164 319.2183386 -386.21318054 315.1036377 C-389.84151718 311.28433597 -390.52318512 308.22084763 -390.71318054 303.1036377 C-390.52318512 297.98642776 -389.84151718 294.92293942 -386.21318054 291.1036377 C-381.1723539 286.97466211 -377.54126115 286.52551649 -371.29911804 286.5645752 C-370.02278 286.54688583 -370.02278 286.54688583 -368.72065735 286.52883911 C-366.00964539 286.49370044 -363.29940098 286.48443193 -360.58818054 286.4786377 C-339.21029677 286.76841274 -339.21029677 286.76841274 -319.21318054 280.1036377 C-318.48614929 279.70531738 -317.75911804 279.30699707 -317.01005554 278.89660645 C-307.16933669 272.92679973 -300.34289305 263.42040045 -293.39604187 254.44641113 C-290.20349361 250.32764709 -286.91041907 246.31570032 -283.52568054 242.3536377 C-279.74740395 237.92822026 -276.05190325 233.4517655 -272.43583679 228.8927002 C-269.57171227 225.29870211 -266.6748814 221.73186442 -263.77568054 218.1661377 C-263.20994324 217.47028564 -262.64420593 216.77443359 -262.06132507 216.05749512 C-258.24599746 211.36752269 -254.41972282 206.68662312 -250.58818054 202.0098877 C-247.6222986 198.3805848 -244.66752748 194.74233206 -241.71318054 191.1036377 C-235.86693334 183.90365573 -229.99843375 176.72221157 -224.11943054 169.5489502 C-219.06782479 163.38086637 -214.03640429 157.19665581 -209.0110321 151.00720215 C-205.21442073 146.3323612 -201.40480185 141.66841076 -197.58818054 137.0098877 C-194.6222986 133.3805848 -191.66752748 129.74233206 -188.71318054 126.1036377 C-182.86693334 118.90365573 -176.99843375 111.72221157 -171.11943054 104.5489502 C-166.63817747 99.07727524 -162.1713718 93.59410335 -157.71318054 88.1036377 C-153.25920765 82.61836716 -148.80199033 77.13598088 -144.31474304 71.67785645 C-142.87981519 69.92020319 -141.45847047 68.15139521 -140.04911804 66.37316895 C-125.420025 48.04803296 -108.61766168 35.4684061 -85.21318054 31.1036377 C-80.22219522 30.72795531 -75.26281951 30.75181222 -70.26005554 30.81066895 C-68.86473553 30.81628088 -67.46940952 30.8205434 -66.07408142 30.8235321 C-62.44414758 30.83485548 -58.8145877 30.86421059 -55.18479919 30.89764404 C-51.46384232 30.92861879 -47.74282359 30.9420953 -44.02177429 30.95715332 C-36.75207461 30.98909588 -29.48268045 31.04013541 -22.21318054 31.1036377 C-22.23412781 30.49890625 -22.25507507 29.8941748 -22.2766571 29.27111816 C-22.36027 26.50712998 -22.41198108 23.74340857 -22.46318054 20.9786377 C-22.49669617 20.02730957 -22.53021179 19.07598145 -22.56474304 18.0958252 C-22.64623686 12.22827012 -22.26526988 8.69406566 -18.21318054 4.1036377 C-12.57427073 -0.15431461 -7.01834892 -2.84250801 0 0 Z " fill="#000000" transform="translate(422.2131805419922,80.8963623046875)"/>
<path d="M0 0 C3.57435421 2.17745794 6.17578509 4.95491351 8.765625 8.2109375 C9.23033203 8.77683594 9.69503906 9.34273438 10.17382812 9.92578125 C13.98469014 14.59318963 17.69107241 19.34640096 21.38964844 24.10302734 C24.93701914 28.65116445 28.63108892 33.05362421 32.3840332 37.43261719 C35.76809331 41.40109259 39.00248806 45.46869663 42.203125 49.5859375 C43.56531214 51.31902772 44.92985511 53.05022152 46.29589844 54.78027344 C47.37442438 56.15584736 48.43472813 57.54566613 49.4921875 58.9375 C57.07370194 68.32567319 68.51834696 74.46837982 80.50390625 75.86865234 C86.10725219 76.4608308 91.70168405 76.56249102 97.33203125 76.65234375 C98.42909897 76.67312485 99.52616669 76.69390594 100.65647888 76.71531677 C104.13030269 76.78023547 107.60419632 76.83942672 111.078125 76.8984375 C113.4459705 76.94167769 115.81380918 76.98529365 118.18164062 77.02929688 C123.95956352 77.13585698 129.73755449 77.23772599 135.515625 77.3359375 C135.48944092 76.7061499 135.46325684 76.0763623 135.4362793 75.42749023 C135.33162715 72.54306506 135.26708706 69.65904026 135.203125 66.7734375 C135.1402832 65.2874707 135.1402832 65.2874707 135.07617188 63.77148438 C134.9618043 56.8865566 135.84905394 53.46434055 140.515625 48.3359375 C144.68340328 45.2597202 149.05366548 44.42336152 154.16137695 44.64208984 C158.29688417 45.49754595 161.32260021 47.35854993 164.79296875 49.6484375 C165.48308548 50.09213181 166.17320221 50.53582611 166.88423157 50.9929657 C169.10386118 52.42709561 171.31088759 53.87903196 173.515625 55.3359375 C174.24293823 55.81414948 174.97025146 56.29236145 175.71960449 56.7850647 C180.15780708 59.70825061 184.5729192 62.66412748 188.97436523 65.64233398 C191.23601721 67.17066469 193.50362914 68.68987826 195.77148438 70.20898438 C197.23213834 71.19476817 198.69243849 72.18107648 200.15234375 73.16796875 C200.82005295 73.6138887 201.48776215 74.05980865 202.17570496 74.51924133 C207.55881359 78.18246976 212.87614308 82.22345304 215.515625 88.3359375 C216.53119372 94.78851437 215.2432986 99.91266371 211.515625 105.3359375 C208.58696824 108.00584658 205.36188814 110.10767371 202.03515625 112.25 C201.10773117 112.86813568 200.18030609 113.48627136 199.22477722 114.12313843 C196.27038104 116.08657297 193.29991494 118.0239565 190.328125 119.9609375 C188.34978882 121.2691372 186.37256302 122.57901772 184.39648438 123.890625 C179.9248228 126.85417152 175.44220984 129.80027292 170.95010376 132.73272705 C167.74995387 134.84016533 164.58262757 136.99521074 161.42070007 139.15951538 C156.54064685 142.17304626 151.05604401 141.89950448 145.515625 141.3359375 C140.89862216 139.15335434 137.49677145 136.09754701 135.515625 131.3359375 C135.03752494 127.52937116 135.13718065 123.78956712 135.265625 119.9609375 C135.28367187 118.93871094 135.30171875 117.91648437 135.3203125 116.86328125 C135.36723009 114.35319001 135.43285771 111.84505986 135.515625 109.3359375 C134.75966537 109.34481995 134.00370575 109.35370239 133.22483826 109.362854 C126.03335222 109.44364396 118.84209212 109.50422418 111.6502676 109.54318619 C107.95455196 109.56389167 104.25921722 109.59188849 100.5637207 109.63769531 C96.98452685 109.68177314 93.4056948 109.70520194 89.82625008 109.71544647 C87.82418487 109.72622616 85.82226136 109.7573479 83.82041931 109.78912354 C71.59983361 109.79205339 59.9978642 107.31444923 49.140625 101.5234375 C48.47200439 101.17579346 47.80338379 100.82814941 47.11450195 100.4699707 C33.19945671 93.04827504 22.94456773 81.51098496 13.4765625 69.15625 C10.19383117 64.88309734 6.76559207 60.73493558 3.328125 56.5859375 C-1.66598736 50.54609517 -6.62182464 44.48257883 -11.484375 38.3359375 C-12.43611977 37.14446882 -13.38794928 35.95306783 -14.33984375 34.76171875 C-15.34662029 33.49500313 -16.35313173 32.22807677 -17.359375 30.9609375 C-17.83656982 30.36514893 -18.31376465 29.76936035 -18.80541992 29.15551758 C-24.38173709 22.1042069 -25.43643748 17.32629966 -24.484375 8.3359375 C-22.50382225 3.89949935 -19.9113349 1.26429899 -15.5390625 -0.96875 C-10.01716682 -2.8373763 -5.21368067 -2.48994166 0 0 Z " fill="#000000" transform="translate(264.484375,290.6640625)"/>
<path d="M0 0 C1.13232559 -0.0038269 2.26465118 -0.00765381 3.43128967 -0.01159668 C5.82765593 -0.01431506 8.22405189 -0.00695917 10.62036133 0.00976562 C14.24174489 0.03099551 17.86110351 0.01005286 21.48242188 -0.015625 C37.05071885 -0.03584968 50.7430998 0.88736317 64.72265625 8.34375 C65.39127686 8.69139404 66.05989746 9.03903809 66.7487793 9.3972168 C79.38394103 16.13627681 89.40705555 26.42984397 98.125 37.671875 C100.95744617 41.3157249 103.87002312 44.89093497 106.78515625 48.46875 C107.35089355 49.16444092 107.91663086 49.86013184 108.49951172 50.5769043 C111.60913714 54.40029535 114.72499293 58.21849534 117.84765625 62.03125 C118.54246094 62.88332031 119.23726562 63.73539063 119.953125 64.61328125 C121.84004028 66.91267067 123.74038351 69.19871131 125.6484375 71.48046875 C126.81914263 72.89311961 127.98971582 74.30587982 129.16015625 75.71875 C129.711875 76.37230469 130.26359375 77.02585937 130.83203125 77.69921875 C135.15488158 82.94159959 139.44990945 88.59005686 139.84765625 95.59375 C139.10515381 101.44095673 137.17160087 104.88101439 132.72265625 108.90625 C129.27890509 111.2625008 127.31420378 111.73488531 123.16015625 111.84375 C122.23847656 111.88113281 121.31679687 111.91851562 120.3671875 111.95703125 C114.05725454 111.06727356 110.08741708 107.76718052 106.38012695 102.86230469 C105.95691162 102.27868164 105.53369629 101.69505859 105.09765625 101.09375 C104.15067829 99.83815059 103.20139792 98.58428487 102.25 97.33203125 C101.77159668 96.69861816 101.29319336 96.06520508 100.80029297 95.41259766 C98.51558292 92.45361015 96.09451833 89.61737941 93.66015625 86.78125 C89.78774583 82.24986472 86.00895717 77.65822611 82.3046875 72.98828125 C79.45163524 69.40630545 76.54710465 65.86750004 73.63671875 62.33203125 C72.09531399 60.44604624 70.56947888 58.54724073 69.05859375 56.63671875 C58.85355967 43.81905566 48.30830995 35.74975738 31.60040283 33.73867798 C27.67297341 33.37704887 23.75011878 33.37508553 19.80859375 33.35546875 C17.99347773 33.33229077 16.17837349 33.30817429 14.36328125 33.28320312 C11.53474746 33.24801868 8.70665649 33.21867448 5.87792969 33.20532227 C3.12512648 33.18982762 0.37356679 33.14964362 -2.37890625 33.10546875 C-3.64004745 33.10833138 -3.64004745 33.10833138 -4.92666626 33.11125183 C-10.30823145 32.99956077 -13.36477109 32.07027001 -17.65234375 28.53125 C-21.28068038 24.71194828 -21.96234833 21.64845994 -22.15234375 16.53125 C-21.96234833 11.41404006 -21.28068038 8.35055172 -17.65234375 4.53125 C-12.15443284 -0.29169293 -7.10836585 -0.05322908 0 0 Z " fill="#000000" transform="translate(53.65234375,111.46875)"/>
</svg>
