<?xml version="1.0" encoding="UTF-8"?>
<svg version="1.1" xmlns="http://www.w3.org/2000/svg" width="512" height="512">
<path d="M0 0 C3.83334904 2.40533038 6.88395124 5.5380998 10.05205727 8.74357033 C10.79943153 9.48393532 11.5468058 10.22430031 12.31682777 10.9871006 C14.76887813 13.42163688 17.20611191 15.87040428 19.64263344 18.32047462 C21.3497877 20.02493241 23.05753521 21.72879619 24.76584816 23.43209267 C28.33703019 26.99738876 31.90090563 30.56979068 35.45977211 34.14737892 C40.01699331 38.72740557 44.59196049 43.28921663 49.17254543 47.84586239 C52.69968834 51.3585382 56.2172326 54.88070166 59.73196411 58.40579224 C61.41510743 60.09159937 63.10121477 61.77445265 64.79034805 63.45425797 C67.1504321 65.80416042 69.49727591 68.16654639 71.84111977 70.53263283 C72.53777245 71.22118858 73.23442513 71.90974434 73.95218849 72.61916542 C79.00184584 77.75775454 81.745471 81.93351266 82.56060219 89.26969337 C82.17143976 97.75726432 76.4483888 103.5913542 70.71172523 109.26114845 C69.97136024 110.00852272 69.23099525 110.75589699 68.46819496 111.52591896 C66.03365869 113.97796932 63.58489128 116.41520309 61.13482094 118.85172462 C59.43036316 120.55887889 57.72649937 122.2666264 56.0232029 123.97493935 C52.45790681 127.54612138 48.88550488 131.10999681 45.30791664 134.6688633 C40.72788999 139.22608449 36.16607893 143.80105168 31.60943317 148.38163662 C28.09675737 151.90877953 24.5745939 155.42632378 21.04950333 158.9410553 C19.36369619 160.62419862 17.68084292 162.31030596 16.0010376 163.99943924 C13.65113514 166.35952329 11.28874917 168.7063671 8.92266273 171.05021095 C8.23410698 171.74686363 7.54555122 172.44351631 6.83613014 173.16127968 C1.69754102 178.21093703 -2.4782171 180.95456218 -9.81439781 181.76969337 C-15.08927687 181.5345728 -19.5517273 179.48076866 -23.41986656 175.90641212 C-27.01556058 171.82566848 -28.69226418 168.32623662 -29.18939781 162.95719337 C-28.18040998 151.25293447 -18.40967437 143.71161054 -10.53705406 135.89469337 C-9.77009712 135.12915138 -9.00314018 134.36360939 -8.21294212 133.57486916 C-5.790789 131.1582614 -3.36516169 128.74517611 -0.93939781 126.33219337 C0.71513112 124.68268652 2.36943021 123.03294909 4.02349281 121.38297462 C8.05404421 117.36337967 12.08744491 113.34666168 16.12310219 109.33219337 C-22.79961986 109.24059648 -61.72232783 109.17013364 -100.64513617 109.12793206 C-105.24249114 109.12292935 -109.83984589 109.11775205 -114.43720055 109.11246681 C-115.35243387 109.11141757 -116.26766719 109.11036833 -117.21063485 109.10928729 C-132.02128205 109.0918919 -146.83186701 109.06035898 -161.64247731 109.02358219 C-176.84458337 108.98614868 -192.04665688 108.96395242 -207.24880713 108.9558394 C-216.62598713 108.95035662 -226.00299119 108.9330527 -235.38011702 108.90052751 C-241.81426699 108.87934986 -248.24832629 108.87300068 -254.68250857 108.87818787 C-258.39225503 108.8807446 -262.10169451 108.8768828 -265.81138611 108.85537148 C-269.84085332 108.83217754 -273.86967177 108.84027179 -277.8991909 108.85117531 C-279.64291071 108.83369826 -279.64291071 108.83369826 -281.42185718 108.81586814 C-291.24544851 108.88755943 -300.26062363 111.15097783 -308.02533531 117.42984962 C-316.43752616 126.07275457 -319.15965322 135.18513632 -319.18549156 146.88297462 C-319.21065419 148.9643576 -319.23605218 151.04573774 -319.26166344 153.12711525 C-319.29035538 156.38548975 -319.31439274 159.64381503 -319.33319664 162.90226173 C-319.35497005 166.06275635 -319.39441827 169.22268023 -319.43549156 172.38297462 C-319.43560738 173.34576836 -319.43572319 174.30856209 -319.43584251 175.30053139 C-319.53454891 182.11537134 -320.21653193 188.99464345 -324.59564781 194.48844337 C-325.18346031 194.93188087 -325.77127281 195.37531837 -326.37689781 195.83219337 C-326.96471031 196.29625587 -327.55252281 196.76031837 -328.15814781 197.23844337 C-333.14553446 200.41223488 -339.20322208 199.73153576 -344.87689781 199.33219337 C-350.26065278 197.63730755 -353.80493423 193.98516752 -356.87689781 189.33219337 C-357.79264187 186.38353214 -358.01227969 183.69685707 -358.03803062 180.61808205 C-358.05244194 179.21963303 -358.05244194 179.21963303 -358.06714439 177.79293251 C-358.07139427 176.78881828 -358.07564415 175.78470406 -358.08002281 174.75016212 C-358.08572289 173.70379082 -358.09142296 172.65741951 -358.09729576 171.57933998 C-358.10674352 169.3593541 -358.11327885 167.13935421 -358.11713219 164.91935158 C-358.12675222 161.57037641 -358.15774209 158.22203793 -358.18939781 154.873209 C-358.31359059 129.9009069 -353.71669818 109.54506022 -336.00189781 90.95719337 C-319.91615976 75.61731644 -300.02904596 70.1920095 -278.38020897 70.17397499 C-276.49076165 70.16656803 -276.49076165 70.16656803 -274.56314367 70.15901142 C-271.07867919 70.14548222 -267.59422442 70.13802716 -264.10974061 70.13158476 C-260.34771746 70.12355779 -256.58571435 70.10986796 -252.82370567 70.09687233 C-246.30968989 70.0751421 -239.79567205 70.05698503 -233.2816391 70.0412674 C-223.86348678 70.01853726 -214.4453567 69.99039882 -205.02722328 69.96094812 C-189.74624897 69.91331071 -174.46526555 69.87003611 -159.18427086 69.82950783 C-144.34181574 69.79013329 -129.4993687 69.74870238 -114.65692711 69.70450783 C-113.74175853 69.70178356 -112.82658995 69.69905928 -111.88368899 69.69625246 C-107.29247346 69.68257266 -102.70125805 69.66885245 -98.11004269 69.65511215 C-60.03234457 69.54120788 -21.95462907 69.43438517 16.12310219 69.33219337 C15.6161129 68.82964531 15.10912361 68.32709724 14.58677101 67.80932045 C9.79991991 63.06261361 5.0179447 58.31105463 0.24133015 53.55404568 C-2.21429495 51.10883898 -4.67173761 48.66551995 -7.13348961 46.22648048 C-9.96629544 43.41964653 -12.7909204 40.60465968 -15.61517906 37.78922462 C-16.49652016 36.9182061 -17.37786125 36.04718758 -18.28590965 35.14977455 C-19.51684601 33.91906479 -19.51684601 33.91906479 -20.77264977 32.6634922 C-21.49434853 31.94623466 -22.21604729 31.22897713 -22.95961571 30.48998451 C-27.0062515 25.93572783 -28.61663726 22.03890308 -29.18939781 16.08219337 C-28.69125625 10.10449467 -26.47677693 5.44352128 -21.93939781 1.45719337 C-14.5090324 -3.69857038 -7.90933724 -4.15031239 0 0 Z " fill="#0A0A12" transform="translate(393.87689781188965,38.66780662536621)"/>
<path d="M0 0 C4.65623605 3.43674566 8.46950651 7.1454045 9.625 12.9375 C9.72337141 14.50670776 9.77298262 16.0793782 9.78613281 17.65161133 C9.79574036 18.58391068 9.8053479 19.51621002 9.81524658 20.47676086 C9.8216214 21.98293221 9.8216214 21.98293221 9.828125 23.51953125 C9.83382507 24.56590256 9.83952515 25.61227386 9.84539795 26.69035339 C9.85484571 28.91033927 9.86138104 31.13033916 9.86523438 33.3503418 C9.87485441 36.69931697 9.90584428 40.04765544 9.9375 43.39648438 C10.01707257 59.35216191 9.34674125 73.59398064 1.625 87.9375 C0.96177734 89.19820312 0.96177734 89.19820312 0.28515625 90.484375 C-3.42437015 97.10192349 -8.0745318 102.53650568 -13.375 107.9375 C-14.27992188 108.87916016 -14.27992188 108.87916016 -15.203125 109.83984375 C-30.32371161 124.33588439 -50.8049482 128.07883546 -70.95397949 128.09571838 C-72.21038191 128.10065636 -73.46678433 128.10559434 -74.76125956 128.11068195 C-78.23206311 128.12419328 -81.70285694 128.13166097 -85.17367983 128.13810861 C-88.92273369 128.14614353 -92.67176751 128.15983058 -96.42080688 128.17282104 C-102.91079579 128.19454008 -109.40078676 128.2127012 -115.89079285 128.22842598 C-125.27418009 128.25116637 -134.65754508 128.27930334 -144.0409134 128.30874526 C-159.26587253 128.35637015 -174.49084078 128.39964811 -189.71582031 128.44018555 C-204.5029369 128.47956647 -219.2900454 128.5209989 -234.07714844 128.56518555 C-235.44502673 128.56927196 -235.44502673 128.56927196 -236.84053892 128.57344092 C-241.41549975 128.58712082 -245.99046046 128.60084101 -250.5654211 128.61458123 C-288.50193059 128.72846581 -326.43845735 128.83529284 -364.375 128.9375 C-363.61451607 129.6913221 -363.61451607 129.6913221 -362.83866882 130.46037292 C-358.05181773 135.20707976 -353.26984251 139.95863875 -348.49322796 144.7156477 C-346.03760286 147.16085439 -343.5801602 149.60417343 -341.1184082 152.04321289 C-338.28560237 154.85004684 -335.46097741 157.66503369 -332.63671875 160.48046875 C-331.31470711 161.78699654 -331.31470711 161.78699654 -329.96598816 163.11991882 C-329.14536392 163.940392 -328.32473969 164.76086517 -327.47924805 165.60620117 C-326.75754929 166.32345871 -326.03585052 167.04071625 -325.2922821 167.77970886 C-320.55451391 173.11179547 -319.22489015 177.91450338 -319.375 184.9375 C-320.33522555 190.72949879 -323.02176418 194.21648585 -327.62109375 197.75 C-332.28421363 200.90721257 -336.78729851 201.76182155 -342.375 200.9375 C-348.9468872 198.66180428 -353.49931569 194.38742815 -358.30395508 189.52612305 C-359.05132935 188.78575806 -359.79870361 188.04539307 -360.56872559 187.28259277 C-363.02077595 184.8480565 -365.45800972 182.39928909 -367.89453125 179.94921875 C-369.60168551 178.24476097 -371.30943302 176.54089718 -373.01774597 174.83760071 C-376.588928 171.27230462 -380.15280344 167.69990269 -383.71166992 164.12231445 C-388.26889112 159.54228781 -392.84385831 154.98047674 -397.42444324 150.42383099 C-400.95158615 146.91115518 -404.46913041 143.38899172 -407.98386192 139.86390114 C-409.66700524 138.178094 -411.35311259 136.49524073 -413.04224586 134.81543541 C-415.40232991 132.46553295 -417.74917373 130.10314698 -420.09301758 127.73706055 C-420.78967026 127.04850479 -421.48632294 126.35994904 -422.2040863 125.65052795 C-427.25374365 120.51193883 -429.99736881 116.33618072 -430.8125 109 C-430.42333757 100.51242906 -424.70028661 94.67833917 -418.96362305 89.00854492 C-418.22325806 88.26117065 -417.48289307 87.51379639 -416.72009277 86.74377441 C-414.2855565 84.29172405 -411.83678909 81.85449028 -409.38671875 79.41796875 C-407.68226097 77.71081449 -405.97839718 76.00306698 -404.27510071 74.29475403 C-400.70980462 70.723572 -397.13740269 67.15969656 -393.55981445 63.60083008 C-388.97978781 59.04360888 -384.41797674 54.46864169 -379.86133099 49.88805676 C-376.34865518 46.36091385 -372.82649172 42.84336959 -369.30140114 39.32863808 C-367.615594 37.64549476 -365.93274073 35.95938741 -364.25293541 34.27025414 C-361.90303295 31.91017009 -359.54064698 29.56332627 -357.17456055 27.21948242 C-356.48600479 26.52282974 -355.79744904 25.82617706 -355.08802795 25.1084137 C-349.94943883 20.05875635 -345.77368072 17.31513119 -338.4375 16.5 C-333.15785856 16.73533285 -328.74197035 18.80423052 -324.83203125 22.328125 C-319.81463013 27.91936378 -319.12054642 32.99378525 -319.5 40.1796875 C-322.02888018 48.15017591 -329.48454033 54.31702619 -335.2734375 60.03125 C-336.10839752 60.86338013 -336.94335754 61.69551025 -337.80361938 62.55285645 C-340.44771818 65.18584155 -343.09871669 67.8117515 -345.75 70.4375 C-347.55384748 72.23130631 -349.35723764 74.02557261 -351.16015625 75.8203125 C-355.55982928 80.19804215 -359.96517473 84.56999845 -364.375 88.9375 C-325.45227795 89.02909689 -286.52956998 89.09955973 -247.60676165 89.14176132 C-243.00940668 89.14676402 -238.41205192 89.15194132 -233.81469727 89.15722656 C-232.89946395 89.1582758 -231.98423063 89.15932505 -231.04126296 89.16040608 C-216.23061576 89.17780148 -201.4200308 89.2093344 -186.6094205 89.24611118 C-171.40731444 89.2835447 -156.20524093 89.30574095 -141.00309068 89.31385398 C-131.62591069 89.31933675 -122.24890662 89.33664067 -112.87178079 89.36916587 C-106.43763082 89.39034352 -100.00357152 89.3966927 -93.56938925 89.39150551 C-89.85964278 89.38894877 -86.1502033 89.39281057 -82.4405117 89.4143219 C-78.41104449 89.43751583 -74.38222604 89.42942159 -70.35270691 89.41851807 C-68.6089871 89.43599512 -68.6089871 89.43599512 -66.83004063 89.45382524 C-57.00644931 89.38213395 -47.99127418 87.11871554 -40.2265625 80.83984375 C-31.81437165 72.1969388 -29.09224459 63.08455705 -29.06640625 51.38671875 C-29.04124362 49.30533577 -29.01584563 47.22395563 -28.99023438 45.14257812 C-28.96154243 41.88420363 -28.93750507 38.62587835 -28.91870117 35.36743164 C-28.89692776 32.20693702 -28.85747954 29.04701315 -28.81640625 25.88671875 C-28.81629044 24.92392502 -28.81617462 23.96113129 -28.8160553 22.96916199 C-28.7173489 16.15432204 -28.03536588 9.27504993 -23.65625 3.78125 C-23.0684375 3.3378125 -22.480625 2.894375 -21.875 2.4375 C-21.2871875 1.9734375 -20.699375 1.509375 -20.09375 1.03125 C-14.43974316 -2.56675435 -6.1508052 -1.9363646 0 0 Z " fill="#0A0A12" transform="translate(466.375,275.0625)"/>
</svg>
